<?xml version="1.0" encoding="UTF-8"?><svg id="Layer_1" xmlns="http://www.w3.org/2000/svg" viewBox="0 0 945.14 955.41"><defs><style>.cls-1{fill:#f6d28a;}</style></defs><rect class="cls-1" x="140.72" y="261.46" width="14.97" height="14.97" transform="translate(-120.74 417.14) rotate(-90)"/><rect class="cls-1" x="140.72" y="246.49" width="14.97" height="14.97" transform="translate(-105.77 402.18) rotate(-90)"/><rect class="cls-1" x="125.75" y="246.49" width="14.97" height="14.97" transform="translate(-120.74 387.21) rotate(-90)"/><rect class="cls-1" x="140.72" y="231.52" width="14.97" height="14.97" transform="translate(-90.8 387.21) rotate(-90)"/><rect class="cls-1" x="155.69" y="246.49" width="14.97" height="14.97" transform="translate(-90.8 417.14) rotate(-90)"/><rect class="cls-1" x="915.21" y="646.13" width="14.97" height="14.97" transform="translate(269.08 1576.3) rotate(-90)"/><rect class="cls-1" x="915.21" y="631.16" width="14.97" height="14.97" transform="translate(284.05 1561.34) rotate(-90)"/><rect class="cls-1" x="900.24" y="631.16" width="14.97" height="14.97" transform="translate(269.08 1546.37) rotate(-90)"/><rect class="cls-1" x="915.21" y="616.19" width="14.97" height="14.97" transform="translate(299.01 1546.37) rotate(-90)"/><rect class="cls-1" x="930.17" y="631.16" width="14.97" height="14.97" transform="translate(299.01 1576.3) rotate(-90)"/><rect class="cls-1" x="196.17" y="880.31" width="14.97" height="14.97" transform="translate(-684.14 1091.45) rotate(-90)"/><rect class="cls-1" x="196.17" y="865.34" width="14.97" height="14.97" transform="translate(-669.17 1076.48) rotate(-90)"/><rect class="cls-1" x="181.2" y="865.34" width="14.97" height="14.97" transform="translate(-684.14 1061.51) rotate(-90)"/><rect class="cls-1" x="196.17" y="850.38" width="14.97" height="14.97" transform="translate(-654.21 1061.51) rotate(-90)"/><rect class="cls-1" x="211.14" y="865.34" width="14.97" height="14.97" transform="translate(-654.21 1091.45) rotate(-90)"/><rect class="cls-1" x="661.47" y="70.83" width="14.97" height="14.97" transform="translate(590.64 747.27) rotate(-90)"/><rect class="cls-1" x="661.47" y="55.86" width="14.97" height="14.97" transform="translate(605.61 732.3) rotate(-90)"/><rect class="cls-1" x="646.5" y="55.86" width="14.97" height="14.97" transform="translate(590.64 717.33) rotate(-90)"/><rect class="cls-1" x="661.47" y="40.89" width="14.97" height="14.97" transform="translate(620.58 717.33) rotate(-90)"/><rect class="cls-1" x="676.44" y="55.86" width="14.97" height="14.97" transform="translate(620.58 747.27) rotate(-90)"/><rect class="cls-1" x="809.97" y="778.85" width="14.97" height="14.97" transform="translate(31.12 1603.79) rotate(-90)"/><rect class="cls-1" x="809.97" y="763.89" width="14.97" height="14.97" transform="translate(46.09 1588.82) rotate(-90)"/><rect class="cls-1" x="795" y="763.89" width="14.97" height="14.97" transform="translate(31.12 1573.86) rotate(-90)"/><rect class="cls-1" x="809.97" y="748.92" width="14.97" height="14.97" transform="translate(61.05 1573.86) rotate(-90)"/><rect class="cls-1" x="824.94" y="763.89" width="14.97" height="14.97" transform="translate(61.05 1603.79) rotate(-90)"/><rect class="cls-1" x="14.97" y="138.44" width="14.97" height="14.97" transform="translate(-123.47 168.37) rotate(-90)"/><rect class="cls-1" x="14.97" y="123.47" width="14.97" height="14.97" transform="translate(-108.51 153.41) rotate(-90)"/><rect class="cls-1" x="0" y="123.47" width="14.97" height="14.97" transform="translate(-123.47 138.44) rotate(-90)"/><rect class="cls-1" x="14.97" y="108.51" width="14.97" height="14.97" transform="translate(-93.54 138.44) rotate(-90)"/><rect class="cls-1" x="29.93" y="123.47" width="14.97" height="14.97" transform="translate(-93.54 168.37) rotate(-90)"/><rect class="cls-1" x="140.72" y="123.47" width="14.97" height="14.97" transform="translate(17.25 279.16) rotate(-90)"/><rect class="cls-1" x="653.99" y="742.33" width="14.97" height="14.97" transform="translate(-88.34 1411.28) rotate(-90)"/><rect class="cls-1" x="907.72" y="858.64" width="14.97" height="14.97" transform="translate(49.08 1781.33) rotate(-90)"/><rect class="cls-1" x="879.27" y="101.02" width="14.97" height="14.97" transform="translate(778.25 995.26) rotate(-90)"/><rect class="cls-1" x="377.67" y="819.8" width="14.97" height="14.97" transform="translate(-442.13 1212.44) rotate(-90)"/><rect class="cls-1" x="69.93" y="778.85" width="14.97" height="14.97" transform="translate(-708.92 863.75) rotate(-90)"/><rect class="cls-1" x="707.67" y="181.94" width="14.97" height="14.97" transform="translate(525.73 904.58) rotate(-90)"/><rect class="cls-1" x="413.97" y="14.65" width="14.97" height="14.97" transform="translate(399.32 443.59) rotate(-90)"/><rect class="cls-1" x="792.57" y="916.55" width="14.97" height="14.97" transform="translate(-123.98 1724.08) rotate(-90)"/><rect class="cls-1" x="509.67" y="132.12" width="14.97" height="14.97" transform="translate(377.55 656.76) rotate(-90)"/><rect class="cls-1" x="235.77" y="173.07" width="14.97" height="14.97" transform="translate(62.7 423.81) rotate(-90)"/><rect class="cls-1" x="37.42" y="940.44" width="14.97" height="14.97" transform="translate(-903.02 992.82) rotate(-90)"/><rect class="cls-1" x="84.9" y="763.89" width="14.97" height="14.97" transform="translate(-678.99 863.75) rotate(-90)"/><rect class="cls-1" x="808.3" y="931.51" width="14.97" height="14.97" transform="translate(-123.21 1754.78) rotate(-90)"/><rect class="cls-1" x="428.77" y="0" width="14.97" height="14.97" transform="translate(428.77 443.74) rotate(-90)"/></svg>